<svg xmlns="http://www.w3.org/2000/svg" width="20" height="20">
  <path fill="#FFF" d="M19.16 2.44H13.2V.8c0-.44-.4-.8-.85-.8H8.13c-.47 0-.84.36-.84.8v4.14c0 .44.3.8.8.8v.88h-4c-.5 0-.9.36-.9.8v6.53c0 .44.4.8.8.8h4.1v.84l-.1-.1H6.5c-.46 0-.83.3-.83.8V18c0 .43.37.8.84.8h1.6l.2-.02v.42c0 .44.4.8.9.8h10.1c.5 0 .9-.36.9-.8V3.23c0-.44-.33-.8-.8-.8zm-9.42 3.3h1.38c-.14.13-.23.32-.23.52 0 .14 0 .26.1.37H9.7v-.9zm4.35 13.44c-.5 0-.8-.33-.8-.73s.3-.73.7-.73.7.33.7.73-.4.73-.8.73zm4.3-3.28c0 .44-.4.8-.9.8h-7c-.5 0-.9-.36-.9-.8v-1.15h1.1c.45 0 .83-.35.83-.8v-.44c.4 0 .74-.3.74-.7 0-.4-.3-.7-.7-.7v-.7c.4 0 .7-.3.7-.7 0-.4-.3-.7-.7-.7v-.6c.4 0 .7-.3.7-.7S12 8 11.6 8v-.5c0-.13-.06-.3-.1-.4.45 0 .8-.34.8-.75 0-.2-.08-.4-.2-.5h.14c.46 0 .84-.3.84-.8v-.5h4.44c.46 0 .83.4.83.8v10.6z"/>
  <ellipse fill="#D50032" cx="14.09" cy="12.78" rx=".77" ry=".73"/>
  <ellipse fill="#D50032" cx="16.51" cy="12.78" rx=".77" ry=".73"/>
  <ellipse fill="#D50032" cx="14.09" cy="10.61" rx=".77" ry=".73"/>
  <ellipse fill="#D50032" cx="16.51" cy="10.61" rx=".77" ry=".73"/>
  <ellipse fill="#D50032" cx="14.09" cy="8.58" rx=".77" ry=".73"/>
  <ellipse fill="#D50032" cx="16.51" cy="8.58" rx=".77" ry=".73"/>
  <ellipse fill="#D50032" cx="14.09" cy="6.26" rx=".77" ry=".73"/>
  <ellipse fill="#D50032" cx="16.51" cy="6.26" rx=".77" ry=".73"/>
  <ellipse fill="#D50032" cx="14.09" cy="14.95" rx=".77" ry=".73"/>
  <path fill="#FFF" d="M2.4 5.32h2.32c.46 0 .84-.36.84-.8V2.2c0-.44-.38-.8-.84-.8h-2.3c-.47 0-.84.36-.84.8v2.32c0 .44.37.8.83.8zm-.73 6.42H.84c-.46 0-.84.36-.84.8v.92c0 .43.38.8.84.8h.83c.46 0 .83-.36.83-.8v-.92c0-.44-.37-.8-.83-.8z"/>
</svg>